<svg width="26" height="26" viewBox="0 0 26 26" fill="none" xmlns="http://www.w3.org/2000/svg">
<g opacity="0.64688">
<path d="M18.5 6.32812L20.6818 8.53166L16.2499 13.0079C13.9265 10.6614 14.1398 10.8768 11.8181 8.53194L5 15.4179L7.38648 17.828L11.8181 13.3522C15.8567 17.431 12.5926 14.1343 16.2499 17.8281C19.0495 15.0006 20.2717 13.7662 23.0683 10.9418L25.25 13.1454V6.32812H18.5Z" fill="white"/>
<path d="M2.5 23.3281H0.25V25.5781H2.5V23.3281Z" fill="white"/>
<path d="M2.5 18.8281H0.25V21.0781H2.5V18.8281Z" fill="white"/>
<path d="M2.5 14.3281H0.25V16.5781H2.5V14.3281Z" fill="white"/>
<path d="M2.5 9.57812H0.25V11.8281H2.5V9.57812Z" fill="white"/>
<path d="M2.5 5.07812H0.25V7.32812H2.5V5.07812Z" fill="white"/>
<path d="M2.5 0.578125H0.25V2.82812H2.5V0.578125Z" fill="white"/>
<path d="M7 23.3281H4.75V25.5781H7V23.3281Z" fill="white"/>
<path d="M11.5 23.3281H9.25V25.5781H11.5V23.3281Z" fill="white"/>
<path d="M16.25 23.3281H14V25.5781H16.25V23.3281Z" fill="white"/>
<path d="M20.75 23.3281H18.5V25.5781H20.75V23.3281Z" fill="white"/>
<path d="M25.25 23.3281H23V25.5781H25.25V23.3281Z" fill="white"/>
</g>
</svg>
