<svg width="479" height="129" xmlns="http://www.w3.org/2000/svg"><g fill="none" fill-rule="evenodd"><path fill="#D7DF32" d="M55.672 0l-.026.014V22.08l.026-.015z"/><path fill="#D53A5D" d="M19.11 85.359L.026 96.371v.014l55.647 32.129 55.646-32.129-19.11-11.026-36.536 21.089-.01-.006v.006L30.266 91.789l-11.142-6.43v-.019z"/><path fill="#F9B742" d="M55.672 0v22.065l36.536 21.09V85.36l19.11 11.026V32.128z"/><path fill="#E27A5B" d="M55.646 0L0 32.128v64.257l.026-.015L19.11 85.36l.013-.02V43.155L55.646 22.08V.015z"/><path fill="#FFB229" d="M39.091 82.223l-7.269-4.196v-27.54l23.841 13.77v27.529l.006.002V64.257l23.842-13.77L55.67 36.726l-.016.009L31.82 50.487v27.54z"/><path fill="#B72546" d="M55.67 64.257v27.531l23.841-13.76V50.485z"/><path fill="#E25B5B" d="M31.822 50.487v27.54l7.27 4.196 16.571 9.566V64.258z"/><path d="M163.35 85.079h20.75V97h-36.31V32.663h15.562v52.416zm76.168-14.833c0 1.274-.152 2.67-.456 4.186h-35.217c.183 3.822 1.153 6.567 2.912 8.236 1.76 1.668 4.004 2.502 6.734 2.502 2.306 0 4.217-.576 5.733-1.729 1.517-1.153 2.518-2.639 3.004-4.459h16.47c-.667 3.58-2.123 6.78-4.368 9.6-2.244 2.822-5.095 5.036-8.554 6.644-3.458 1.607-7.31 2.411-11.556 2.411-4.975 0-9.389-1.046-13.241-3.14-3.852-2.093-6.87-5.11-9.055-9.054-2.184-3.943-3.275-8.554-3.275-13.832 0-5.339 1.076-9.964 3.23-13.878 2.154-3.913 5.172-6.915 9.055-9.008 3.882-2.094 8.31-3.14 13.286-3.14 5.035 0 9.463 1.031 13.286 3.094 3.822 2.063 6.779 4.96 8.872 8.69 2.093 3.732 3.14 8.024 3.14 12.877zm-15.744-2.366c.061-3.337-.834-5.84-2.684-7.507-1.85-1.669-4.14-2.503-6.87-2.503-2.852 0-5.218.85-7.099 2.548-1.88 1.699-2.942 4.186-3.185 7.462h19.838zm47.32 13.923l11.012-35.581h16.562L280.649 97h-19.291l-18.019-50.778h16.563l11.192 35.581zm32.579-49.868c0-2.366.849-4.322 2.548-5.87 1.698-1.547 3.943-2.32 6.733-2.32 2.791 0 5.036.773 6.734 2.32 1.7 1.548 2.548 3.504 2.548 5.87 0 2.305-.849 4.231-2.548 5.779-1.698 1.547-3.943 2.32-6.733 2.32-2.791 0-5.036-.773-6.734-2.32-1.7-1.548-2.548-3.474-2.548-5.779zm17.017 14.287V97h-15.562V46.222h15.562zm61.243 0V97H366.28v-9.191c-1.457 2.973-3.625 5.339-6.507 7.098-2.882 1.76-6.233 2.639-10.055 2.639-5.825 0-10.45-1.941-13.878-5.824-3.428-3.883-5.142-9.221-5.142-16.016V46.222h15.47v27.573c0 3.458.895 6.142 2.685 8.053 1.79 1.912 4.201 2.867 7.235 2.867 3.154 0 5.641-1.001 7.462-3.003 1.82-2.002 2.73-4.853 2.73-8.554V46.222h15.651zm76.53-.546c6.25 0 11.163 1.926 14.742 5.779 3.58 3.852 5.37 9.206 5.37 16.061V97h-15.47V69.336c0-3.215-.865-5.718-2.594-7.508-1.729-1.79-4.08-2.684-7.053-2.684-3.094 0-5.535.955-7.325 2.867-1.79 1.91-2.684 4.595-2.684 8.053V97h-15.562V69.336c0-3.215-.849-5.718-2.548-7.508-1.698-1.79-4.034-2.684-7.007-2.684-3.094 0-5.55.94-7.37 2.821-1.82 1.88-2.73 4.58-2.73 8.099V97H392.67V46.222h15.561v8.645c1.335-2.851 3.383-5.096 6.143-6.734s5.99-2.457 9.691-2.457c3.883 0 7.31.895 10.284 2.684 2.972 1.79 5.217 4.353 6.733 7.69 1.76-3.155 4.171-5.672 7.235-7.553 3.064-1.88 6.446-2.821 10.147-2.821z" fill="#FFF" fill-rule="nonzero"/></g></svg>