<svg width="25" height="30" viewBox="0 0 25 30" fill="none" xmlns="http://www.w3.org/2000/svg">
<g opacity="0.64774">
<path d="M15.2832 2.82812V10.747C16.3765 11.5558 17.0864 12.8511 17.0864 14.3087C17.0864 16.7327 15.1235 18.7075 12.6982 18.7415C12.145 19.8677 11.382 20.6836 10.6907 21.247C9.32749 22.3581 7.95624 22.7392 7.89854 22.7548C7.4482 22.8772 6.98354 22.6126 6.8607 22.164C6.73814 21.7163 7.00248 21.2543 7.45124 21.131C7.4793 21.1229 8.58876 20.8012 9.66778 19.9046C10.1963 19.4654 10.6271 18.9683 10.9589 18.4157C9.33273 17.7549 8.18327 16.1634 8.18327 14.3088C8.18327 12.8512 8.89321 11.5558 9.98644 10.747V3.29895C5.16995 5.01481 2.10891 10.099 3.15232 15.3791L1.07282 17.4505C0.283089 18.2371 0.31318 19.5269 1.14303 20.2775C1.71103 20.791 2.27091 21.1356 2.81592 21.308C3.00621 22.9685 3.80681 24.6488 4.4923 25.829C5.02677 26.7493 6.05694 27.2585 7.11664 27.1263L8.7764 26.9198L9.09601 28.8699C9.17146 29.3304 9.60726 29.64 10.0664 29.5652L18.9467 29.5781C19.4927 29.5781 19.8991 29.0685 19.7677 28.5368C19.7601 28.5047 19.0309 25.2689 21.2235 20.8509C21.6187 20.0544 22.1518 19.1683 22.7654 18.2885C23.7939 16.8128 24.7461 15.2047 24.75 13.4455C24.7621 8.08892 20.4888 3.65336 15.2832 2.82812Z" fill="white"/>
<path d="M15.5 14.3695C15.5 12.8303 14.2664 11.5781 12.75 11.5781C11.2336 11.5781 10 12.8303 10 14.3695C10 15.5378 10.7111 16.5402 11.7167 16.9556C11.8438 16.4315 11.9082 15.8731 11.9082 15.281C11.9082 14.8091 12.2851 14.4265 12.75 14.4265C13.2149 14.4265 13.5918 14.8091 13.5918 15.281C13.5918 15.9319 13.5269 16.5293 13.414 17.0781C14.6106 16.7758 15.5 15.6763 15.5 14.3695Z" fill="white"/>
<path d="M11.75 1.68007V10.0781C12.4065 9.93852 13.0804 9.93568 13.75 10.0781V1.68007C13.75 1.20957 13.3549 0.828125 12.8676 0.828125H12.6324C12.1451 0.828125 11.75 1.20957 11.75 1.68007Z" fill="white"/>
</g>
</svg>
