<svg width="31" height="27" viewBox="0 0 31 27" fill="none" xmlns="http://www.w3.org/2000/svg">
<g opacity="0.650321">
<path d="M11.875 15.0781C14.9816 15.0781 17.5 12.5597 17.5 9.45312C17.5 6.34652 14.9816 3.82812 11.875 3.82812C8.7684 3.82812 6.25 6.34652 6.25 9.45312C6.25 12.5597 8.7684 15.0781 11.875 15.0781Z" fill="white"/>
<path d="M22.6755 20.756C16.4177 15.5188 7.33044 15.5188 1.07263 20.756C0.868667 20.9279 0.75 21.183 0.75 21.451V24.004C0.75 25.2536 1.58067 26.0781 2.60417 26.0781H21.1458C22.1693 26.0781 23 25.2536 23 24.2314V21.7209C23 21.183 22.8813 20.9279 22.6755 20.756Z" fill="white"/>
<path d="M19.3805 9.45312C19.3805 10.0925 19.2981 10.7131 19.1463 11.3038C19.2269 11.3075 19.2999 11.3281 19.3805 11.3281C22.4787 11.3281 25 8.80437 25 5.70312C25 2.60188 22.4787 0.078125 19.3805 0.078125C17.4586 0.078125 15.7634 1.05125 14.75 2.52688C17.4642 3.65562 19.3805 6.33313 19.3805 9.45312Z" fill="white"/>
<path d="M30.1765 16.9983C26.7748 14.14 22.5357 12.8515 18.3723 13.1107C17.8325 14.0196 17.1134 14.812 16.25 15.421C19.0434 16.0764 21.7204 17.3723 24.0387 19.3383C24.6377 19.8456 24.9538 20.6176 24.9538 21.4025V22.3281H28.6513C29.6718 22.3281 30.5 21.4988 30.5 20.4769V17.7C30.5 17.4315 30.3817 17.1705 30.1765 16.9983Z" fill="white"/>
</g>
</svg>
