<svg width="27" height="26" viewBox="0 0 27 26" fill="none" xmlns="http://www.w3.org/2000/svg">
<path d="M24.5 0.53125H7.75C6.50736 0.53125 5.5 1.53861 5.5 2.78125V19.5312C5.5 20.7739 6.50736 21.7812 7.75 21.7812H24.5C25.7426 21.7812 26.75 20.7739 26.75 19.5312V2.78125C26.75 1.53861 25.7426 0.53125 24.5 0.53125Z" fill="white"/>
<path d="M19.5 4.53125H2.75C1.50736 4.53125 0.5 5.53861 0.5 6.78125V23.5312C0.5 24.7739 1.50736 25.7812 2.75 25.7812H19.5C20.7426 25.7812 21.75 24.7739 21.75 23.5312V6.78125C21.75 5.53861 20.7426 4.53125 19.5 4.53125Z" fill="white"/>
</svg>
