<svg width="25" height="26" viewBox="0 0 25 26" fill="none" xmlns="http://www.w3.org/2000/svg">
<path d="M5.99847 16.5781L0.868963 21.7125C0.0436791 22.5385 0.0436791 23.8825 0.868963 24.7086C1.28158 25.1217 1.82355 25.3281 2.36557 25.3281C2.90759 25.3281 3.44956 25.1216 3.86223 24.7086L9 19.566C7.81254 18.7791 6.79074 17.7622 5.99847 16.5781Z" fill="white"/>
<path d="M21.9347 3.6481C20.1164 1.82944 17.6986 0.828125 15.1271 0.828125C12.5556 0.828125 10.1378 1.82944 8.31946 3.6481C6.50114 5.46627 5.5 7.88408 5.5 10.4555C5.5 13.027 6.50114 15.4443 8.31946 17.263C10.1965 19.1399 12.6616 20.0781 15.1271 20.0781C17.5926 20.0781 20.0577 19.1399 21.9347 17.263C25.6884 13.5091 25.6884 7.40148 21.9347 3.6481ZM15.1247 16.4456C11.8213 16.4456 9.13376 13.7571 9.13376 10.4531C9.13376 7.14911 11.8213 4.46062 15.1247 4.46062C18.4286 4.46062 21.1161 7.14911 21.1161 10.4531C21.1161 13.7571 18.4286 16.4456 15.1247 16.4456Z" fill="white"/>
</svg>
