<svg width="25" height="25" viewBox="0 0 25 25" fill="none" xmlns="http://www.w3.org/2000/svg">
<path d="M21.5391 9.33567L21.4237 9.29414L20.9732 8.20771L21.0221 8.09608C22.3869 4.96905 22.2928 4.87577 22.0664 4.64907L20.2459 2.8549C20.1715 2.78031 20.0408 2.72784 19.9281 2.72784C19.8257 2.72784 19.5154 2.72784 16.8267 3.95809L16.7189 4.00698L15.6096 3.55569L15.5651 3.44412C14.3007 0.28125 14.1712 0.28125 13.8565 0.28125H11.2856C10.9721 0.28125 10.8294 0.28125 9.65692 3.44962L9.61278 3.56496L8.50925 4.01943L8.40374 3.97511C6.58385 3.2 5.52123 2.80694 5.24424 2.80694C5.13184 2.80694 5.00068 2.85788 4.92593 2.93228L3.10374 4.73161C2.87258 4.96196 2.7767 5.05842 4.21297 8.1202L4.26576 8.23375L3.81453 9.31898L3.70409 9.36211C0.5 10.613 0.5 10.735 0.5 11.0608V13.606C0.5 13.9326 0.5 14.0683 3.71046 15.2307L3.82522 15.2716L4.27652 16.3537L4.22806 16.4642C2.86327 19.5927 2.94983 19.6774 3.18217 19.9109L4.9999 21.7075C5.0761 21.7815 5.20797 21.8343 5.32044 21.8343C5.42221 21.8343 5.73174 21.8343 8.42223 20.6047L8.52998 20.5537L9.64 21.0073L9.68315 21.1194C10.9483 24.2812 11.0783 24.2812 11.3931 24.2812H13.9649C14.2878 24.2812 14.4217 24.2812 15.595 21.1108L15.6388 20.9954L16.7441 20.5439L16.8493 20.5873C18.6677 21.3646 19.7297 21.7568 20.005 21.7568C20.1164 21.7568 20.2487 21.7075 20.3247 21.6314L22.1499 19.8282C22.3795 19.5966 22.4751 19.502 21.0363 16.4431L20.9828 16.3282L21.4332 15.2477L21.5408 15.2051C24.75 13.9476 24.75 13.8251 24.75 13.4988V10.9552C24.75 10.6286 24.75 10.4937 21.5391 9.33567ZM12.6249 16.409C10.3272 16.409 8.45804 14.5568 8.45804 12.2817C8.45804 10.0066 10.3273 8.15677 12.6249 8.15677C14.9216 8.15677 16.7905 10.007 16.7905 12.2817C16.7905 14.5564 14.9217 16.409 12.6249 16.409Z" fill="white"/>
</svg>
