<svg width="33" height="25" viewBox="0 0 33 25" fill="none" xmlns="http://www.w3.org/2000/svg">
<path d="M13.5 0.53125H2.75C1.50736 0.53125 0.5 1.53861 0.5 2.78125V22.5312C0.5 23.7739 1.50736 24.7812 2.75 24.7812H13.5C14.7426 24.7812 15.75 23.7739 15.75 22.5312V2.78125C15.75 1.53861 14.7426 0.53125 13.5 0.53125Z" fill="white"/>
<path d="M30.5 0.53125H20.5C19.2574 0.53125 18.25 1.53861 18.25 2.78125V9.28125C18.25 10.5239 19.2574 11.5312 20.5 11.5312H30.5C31.7426 11.5312 32.75 10.5239 32.75 9.28125V2.78125C32.75 1.53861 31.7426 0.53125 30.5 0.53125Z" fill="white"/>
<path d="M30.5 13.7812H20.5C19.2574 13.7812 18.25 14.7886 18.25 16.0312V22.5312C18.25 23.7739 19.2574 24.7812 20.5 24.7812H30.5C31.7426 24.7812 32.75 23.7739 32.75 22.5312V16.0312C32.75 14.7886 31.7426 13.7812 30.5 13.7812Z" fill="white"/>
</svg>
